<?xml version="1.0" encoding="UTF-8" standalone="no"?>
<!DOCTYPE svg PUBLIC "-//W3C//DTD SVG 1.1//EN"
 "http://www.w3.org/Graphics/SVG/1.1/DTD/svg11.dtd">
<!-- Generated by graphviz version 2.43.0 (0)
 -->
<!-- Title: G Pages: 1 -->
<svg width="362pt" height="142pt"
 viewBox="0.00 0.00 362.00 142.28" xmlns="http://www.w3.org/2000/svg" xmlns:xlink="http://www.w3.org/1999/xlink">
<g id="graph0" class="graph" transform="scale(1 1) rotate(0) translate(4 138.28)">
<title>G</title><style>.edge>path:hover{stroke-width:8}</style>
<polygon fill="white" stroke="transparent" points="-4,4 -4,-138.28 358,-138.28 358,4 -4,4"/>
<!-- spine_vision_cli -->
<g id="node1" class="node">
<title>spine_vision_cli</title><style>.edge>path:hover{stroke-width:8}</style>
<ellipse fill="#964040" stroke="black" cx="314.5" cy="-98" rx="27" ry="18"/>
<text text-anchor="middle" x="314.5" y="-95.5" font-family="Helvetica,sans-Serif" font-size="10.00" fill="#ffffff">cli</text>
</g>
<!-- spine_vision_core -->
<g id="node2" class="node">
<title>spine_vision_core</title><style>.edge>path:hover{stroke-width:8}</style>
<polygon fill="blue" stroke="black" points="54,-114 0,-114 0,-78 54,-78 54,-114"/>
<text text-anchor="middle" x="27" y="-93.5" font-family="Helvetica,sans-Serif" font-size="10.00" fill="white">core</text>
</g>
<!-- spine_vision_core&#45;&gt;spine_vision_cli -->
<g id="edge1" class="edge">
<title>spine_vision_core&#45;&gt;spine_vision_cli</title><style>.edge>path:hover{stroke-width:8}</style>
<path fill="none" stroke="black" d="M54.03,-104.16C89.22,-114.56 154.11,-131.48 211,-134"/>
</g>
<!-- spine_vision_datasets -->
<g id="node3" class="node">
<title>spine_vision_datasets</title><style>.edge>path:hover{stroke-width:8}</style>
<polygon fill="blue" stroke="black" points="149,-68 90,-68 90,-32 149,-32 149,-68"/>
<text text-anchor="middle" x="119.5" y="-47.5" font-family="Helvetica,sans-Serif" font-size="10.00" fill="white">datasets</text>
</g>
<!-- spine_vision_core&#45;&gt;spine_vision_datasets -->
<g id="edge2" class="edge">
<title>spine_vision_core&#45;&gt;spine_vision_datasets</title><style>.edge>path:hover{stroke-width:8}</style>
<path fill="none" stroke="black" d="M54.18,-82.69C62.47,-78.48 71.8,-73.73 80.74,-69.19"/>
<polygon fill="blue" stroke="black" points="82.52,-72.21 89.85,-64.56 79.35,-65.97 82.52,-72.21"/>
</g>
<!-- spine_vision_training -->
<g id="node5" class="node">
<title>spine_vision_training</title><style>.edge>path:hover{stroke-width:8}</style>
<polygon fill="blue" stroke="black" points="239,-93 185,-93 185,-57 239,-57 239,-93"/>
<text text-anchor="middle" x="212" y="-72.5" font-family="Helvetica,sans-Serif" font-size="10.00" fill="white">training</text>
</g>
<!-- spine_vision_core&#45;&gt;spine_vision_training -->
<g id="edge3" class="edge">
<title>spine_vision_core&#45;&gt;spine_vision_training</title><style>.edge>path:hover{stroke-width:8}</style>
<path fill="none" stroke="black" d="M64.19,-91.85C96.15,-88.18 142.52,-82.86 174.56,-79.18"/>
<polygon fill="blue" stroke="black" points="63.76,-88.37 54.22,-92.99 64.55,-95.33 63.76,-88.37"/>
<polygon fill="blue" stroke="black" points="175.29,-82.62 184.83,-78 174.5,-75.67 175.29,-82.62"/>
</g>
<!-- spine_vision_visualization -->
<g id="node6" class="node">
<title>spine_vision_visualization</title><style>.edge>path:hover{stroke-width:8}</style>
<polygon fill="blue" stroke="black" points="354,-36 275,-36 275,0 354,0 354,-36"/>
<text text-anchor="middle" x="314.5" y="-15.5" font-family="Helvetica,sans-Serif" font-size="10.00" fill="white">visualization</text>
</g>
<!-- spine_vision_core&#45;&gt;spine_vision_visualization -->
<g id="edge4" class="edge">
<title>spine_vision_core&#45;&gt;spine_vision_visualization</title><style>.edge>path:hover{stroke-width:8}</style>
<path fill="none" stroke="black" d="M45.88,-77.94C48.65,-75 51.44,-71.95 54,-69 71.03,-49.4 67.62,-36.15 90,-23 136.93,4.58 156.64,-6.94 211,-4"/>
<path fill="none" stroke="black" d="M213,-4C230.02,-2.65 248.55,-4.33 265.01,-6.94"/>
<polygon fill="blue" stroke="black" points="264.51,-10.4 274.96,-8.66 265.71,-3.5 264.51,-10.4"/>
</g>
<!-- spine_vision_datasets&#45;&gt;spine_vision_cli -->
<g id="edge5" class="edge">
<title>spine_vision_datasets&#45;&gt;spine_vision_cli</title><style>.edge>path:hover{stroke-width:8}</style>
<path fill="none" stroke="black" d="M129.97,-68.17C144.02,-92.36 172.88,-132.31 211,-134"/>
<path fill="none" stroke="black" d="M213,-134C238.46,-135.13 265.56,-124.66 285.2,-114.72"/>
<polygon fill="blue" stroke="black" points="287.01,-117.73 294.2,-109.94 283.73,-111.54 287.01,-117.73"/>
</g>
<!-- spine_vision_datasets&#45;&gt;spine_vision_training -->
<g id="edge6" class="edge">
<title>spine_vision_datasets&#45;&gt;spine_vision_training</title><style>.edge>path:hover{stroke-width:8}</style>
<path fill="none" stroke="black" d="M158.77,-60.57C164.1,-62.04 169.55,-63.55 174.84,-65.01"/>
<polygon fill="blue" stroke="black" points="159.71,-57.2 149.13,-57.91 157.84,-63.95 159.71,-57.2"/>
<polygon fill="blue" stroke="black" points="174.13,-68.45 184.7,-67.74 176,-61.7 174.13,-68.45"/>
</g>
<!-- spine_vision_datasets&#45;&gt;spine_vision_visualization -->
<g id="edge7" class="edge">
<title>spine_vision_datasets&#45;&gt;spine_vision_visualization</title><style>.edge>path:hover{stroke-width:8}</style>
<path fill="none" stroke="black" d="M143.12,-31.82C160.54,-19.55 185.83,-5.36 211,-4"/>
</g>
<!-- spine_vision_io -->
<g id="node4" class="node">
<title>spine_vision_io</title><style>.edge>path:hover{stroke-width:8}</style>
<ellipse fill="#b83d3d" stroke="black" cx="27" cy="-42" rx="27" ry="18"/>
<text text-anchor="middle" x="27" y="-39.5" font-family="Helvetica,sans-Serif" font-size="10.00" fill="#ffffff">io</text>
</g>
<!-- spine_vision_io&#45;&gt;spine_vision_datasets -->
<g id="edge8" class="edge">
<title>spine_vision_io&#45;&gt;spine_vision_datasets</title><style>.edge>path:hover{stroke-width:8}</style>
<path fill="none" stroke="black" d="M54.18,-44.31C62.12,-45.02 71.02,-45.8 79.61,-46.56"/>
<polygon fill="#b83d3d" stroke="black" points="79.58,-50.07 89.85,-47.47 80.19,-43.1 79.58,-50.07"/>
</g>
<!-- spine_vision_training&#45;&gt;spine_vision_cli -->
<g id="edge9" class="edge">
<title>spine_vision_training&#45;&gt;spine_vision_cli</title><style>.edge>path:hover{stroke-width:8}</style>
<path fill="none" stroke="black" d="M239.14,-80.98C251.17,-83.73 265.6,-87.04 278.54,-90"/>
<polygon fill="blue" stroke="black" points="278,-93.47 288.53,-92.28 279.56,-86.64 278,-93.47"/>
</g>
<!-- spine_vision_training&#45;&gt;spine_vision_visualization -->
<g id="edge12" class="edge">
<title>spine_vision_training&#45;&gt;spine_vision_visualization</title><style>.edge>path:hover{stroke-width:8}</style>
<path fill="none" stroke="black" d="M248.05,-55.12C256.1,-50.56 264.72,-45.67 272.98,-40.98"/>
<polygon fill="blue" stroke="black" points="246.11,-52.19 239.14,-60.17 249.57,-58.28 246.11,-52.19"/>
<polygon fill="blue" stroke="black" points="274.78,-43.98 281.75,-36.01 271.33,-37.89 274.78,-43.98"/>
</g>
</g>
</svg>
